<?xml version="1.0" encoding="utf-8"?>
<!-- Generator: Adobe Illustrator 23.0.1, SVG Export Plug-In . SVG Version: 6.00 Build 0)  -->
<svg version="1.1" id="Layer_1" xmlns="http://www.w3.org/2000/svg" xmlns:xlink="http://www.w3.org/1999/xlink" x="0px" y="0px"
	 viewBox="0 0 512 512" style="enable-background:new 0 0 512 512;" xml:space="preserve">
<style type="text/css">
	.st0{fill:#FFFFFF;}
</style>
<g>
	<ellipse class="st0" cx="255" cy="188.6" rx="82.3" ry="82.3"/>
	<path class="st0" d="M54.5,490.7c0,11.8,9.6,21.3,21.3,21.3h347.5v-42.7H75.8C64,469.3,54.5,478.9,54.5,490.7L54.5,490.7z"/>
	<path class="st0" d="M254.9,301c-61.9,0-112.3-50.4-112.3-112.3S193,76.3,254.9,76.3s112.3,50.4,112.3,112.3c0,9.7-1.2,19.1-3.5,28
		l59.6,50V0H116.6v439.3h306.7v-44.2L299.9,291.6C286.1,297.6,270.9,301,254.9,301L254.9,301z"/>
	<path class="st0" d="M75.8,439.3h10.8V0H75.8C47.5,0,24.5,23,24.5,51.3v439.3C24.5,462.4,47.5,439.3,75.8,439.3z"/>
	<path class="st0" d="M456,383.4c8.1,6.8,20.2,5.7,27-2.4c3.3-3.9,4.9-8.9,4.4-14s-2.9-9.7-6.8-13l-25.4-21.3L430.6,362L456,383.4z"
		/>
	<path class="st0" d="M326.8,274.9l80.8,67.8l24.7-29.4l-80.6-67.6C345.1,256.8,336.6,266.7,326.8,274.9L326.8,274.9z"/>
</g>
</svg>
